<svg width="24" height="23" viewBox="0 0 24 23" fill="none" xmlns="http://www.w3.org/2000/svg">

    <g id="message">
        <g clip-path="url(#clip0_123_49)">
            <path d="M3 21C2.90162 21.0025 2.80401 20.982 2.715 20.94C2.57804 20.8837 2.46079 20.7882 2.37804 20.6654C2.29529 20.5426 2.25074 20.3981 2.25 20.25V6.585C2.26071 6.10334 2.36622 5.62851 2.5605 5.18764C2.75477 4.74677 3.03401 4.3485 3.38226 4.01557C3.7305 3.68265 4.14093 3.42161 4.59009 3.24735C5.03925 3.0731 5.51835 2.98905 6 3H18C18.4817 2.98905 18.9607 3.0731 19.4099 3.24735C19.8591 3.42161 20.2695 3.68265 20.6177 4.01557C20.966 4.3485 21.2452 4.74677 21.4395 5.18764C21.6338 5.62851 21.7393 6.10334 21.75 6.585V13.665C21.7393 14.1467 21.6338 14.6215 21.4395 15.0624C21.2452 15.5032 20.966 15.9015 20.6177 16.2344C20.2695 16.5674 19.8591 16.8284 19.4099 17.0027C18.9607 17.1769 18.4817 17.261 18 17.25H7.0575L3.5325 20.7825C3.46242 20.852 3.37931 20.907 3.28793 20.9443C3.19655 20.9817 3.0987 21.0006 3 21ZM6 4.5C5.42556 4.4797 4.86645 4.68762 4.44484 5.07831C4.02324 5.46899 3.77343 6.01069 3.75 6.585V18.4425L6.2175 15.9675C6.28758 15.898 6.37069 15.843 6.46207 15.8057C6.55345 15.7683 6.6513 15.7494 6.75 15.75H18C18.5744 15.7703 19.1336 15.5624 19.5552 15.1717C19.9768 14.781 20.2266 14.2393 20.25 13.665V6.585C20.2266 6.01069 19.9768 5.46899 19.5552 5.07831C19.1336 4.68762 18.5744 4.4797 18 4.5H6Z"
                  fill="currentColor"/>
            <path d="M12 11.25C12.6213 11.25 13.125 10.7463 13.125 10.125C13.125 9.50368 12.6213 9 12 9C11.3787 9 10.875 9.50368 10.875 10.125C10.875 10.7463 11.3787 11.25 12 11.25Z"
                  fill="currentColor"/>
            <path d="M16.125 11.25C16.7463 11.25 17.25 10.7463 17.25 10.125C17.25 9.50368 16.7463 9 16.125 9C15.5037 9 15 9.50368 15 10.125C15 10.7463 15.5037 11.25 16.125 11.25Z"
                  fill="currentColor"/>
            <path d="M7.875 11.25C8.49632 11.25 9 10.7463 9 10.125C9 9.50368 8.49632 9 7.875 9C7.25368 9 6.75 9.50368 6.75 10.125C6.75 10.7463 7.25368 11.25 7.875 11.25Z"
                  fill="currentColor"/>
        </g>
        <defs>
            <clipPath id="clip0_123_49">
                <rect width="24" height="24" fill="currentColor"/>
            </clipPath>
        </defs>
    </g>

    <g id="newspaper">
        <path d="M6.90909 4V5.45455H4V17.8182C4 18.3968 4.22987 18.9518 4.63904 19.361C5.04821 19.7701 5.60316 20 6.18182 20H17.2655C17.9901 19.9981 18.6845 19.7094 19.1969 19.1969C19.7094 18.6845 19.9981 17.9901 20 17.2655V4H6.90909ZM5.45455 17.8182V6.90909H6.90909V17.8182C6.90909 18.0111 6.83247 18.1961 6.69608 18.3324C6.55969 18.4688 6.3747 18.5455 6.18182 18.5455C5.98893 18.5455 5.80395 18.4688 5.66756 18.3324C5.53117 18.1961 5.45455 18.0111 5.45455 17.8182ZM18.5455 17.2655C18.5455 17.4335 18.5123 17.6 18.448 17.7553C18.3837 17.9106 18.2894 18.0517 18.1706 18.1706C18.0517 18.2894 17.9106 18.3837 17.7553 18.448C17.6 18.5123 17.4335 18.5455 17.2655 18.5455H8.23273C8.3174 18.3122 8.36167 18.0663 8.36364 17.8182V5.45455H18.5455V17.2655Z"
              fill="currentColor"/>
        <path d="M17 7H11V8H17V7Z" fill="currentColor"/>
        <path d="M17 10H10V11H17V10Z" fill="currentColor"/>
        <path d="M17 13H10V14H17V13Z" fill="currentColor"/>
        <path d="M17 16H10V17H17V16Z" fill="currentColor"/>
    </g>

    <g id="notification">
        <path d="M14.648 10.7018L14.3 10.4275C14.2065 10.3541 14.1309 10.261 14.079 10.1551C14.0271 10.0493 14.0001 9.93338 14 9.81594V6.64863C13.9995 5.28749 13.5172 3.96867 12.6353 2.91713C11.7534 1.86558 10.5265 1.14645 9.164 0.882386C9.09756 0.629863 8.94736 0.406144 8.73701 0.246413C8.52667 0.0866817 8.26811 0 8.002 0C7.73589 0 7.47733 0.0866817 7.26699 0.246413C7.05664 0.406144 6.90644 0.629863 6.84 0.882386C5.47672 1.14565 4.24894 1.86444 3.36624 2.91606C2.48354 3.96768 2.00065 5.28694 2 6.64863V9.81594C1.99993 9.93338 1.97293 10.0493 1.921 10.1551C1.86908 10.261 1.79355 10.3541 1.7 10.4275L1.352 10.7018C0.931712 11.0311 0.592092 11.4485 0.35812 11.9234C0.124147 12.3983 0.00177343 12.9185 0 13.4458V14.0965C0 14.5124 0.168571 14.9112 0.468629 15.2052C0.768687 15.4993 1.17565 15.6645 1.6 15.6645H4.904C5.08432 16.3339 5.48561 16.926 6.04528 17.3484C6.60495 17.7709 7.29155 18 7.998 18C8.70445 18 9.39105 17.7709 9.95072 17.3484C10.5104 16.926 10.9117 16.3339 11.092 15.6645H14.4C14.8243 15.6645 15.2313 15.4993 15.5314 15.2052C15.8314 14.9112 16 14.5124 16 14.0965V13.4536C15.9994 12.925 15.8776 12.4033 15.6436 11.9269C15.4096 11.4506 15.0693 11.032 14.648 10.7018ZM8 16.4485C7.72078 16.4468 7.44686 16.3736 7.20546 16.2361C6.96407 16.0985 6.76361 15.9015 6.624 15.6645H9.38C9.24005 15.9021 9.03896 16.0995 8.7968 16.237C8.55465 16.3746 8.2799 16.4475 8 16.4485ZM14.4 14.0965H1.6V13.4536C1.60043 13.1599 1.66823 12.87 1.7984 12.6054C1.92856 12.3407 2.11776 12.1082 2.352 11.9249L2.7 11.6505C2.98065 11.4303 3.20723 11.1511 3.36301 10.8336C3.51878 10.516 3.59978 10.1683 3.6 9.81594V6.64863C3.6 5.50503 4.06357 4.40827 4.88873 3.59962C5.71389 2.79098 6.83305 2.33669 8 2.33669C9.16695 2.33669 10.2861 2.79098 11.1113 3.59962C11.9364 4.40827 12.4 5.50503 12.4 6.64863V9.81594C12.3996 10.1689 12.4803 10.5175 12.6361 10.8357C12.7919 11.154 13.0188 11.4338 13.3 11.6544L13.648 11.9288C13.8817 12.1117 14.0706 12.3436 14.2007 12.6075C14.3309 12.8714 14.399 13.1606 14.4 13.4536V14.0965Z"
              fill="currentColor"/>
    </g>

    <g id="arrowDown">
        <path d="M6 9L12 15L18 9" stroke="#363636" stroke-width="1.5" stroke-linecap="round" stroke-linejoin="round"/>
    </g>

    <g id="likes">
        <g clip-path="url(#clip0_1_322)">
            <path d="M11.1692 7.09616C11.309 7.43154 11.6367 7.65001 12 7.65001C12.3633 7.65001 12.691 7.43154 12.8308 7.09616C13.1842 6.24792 13.8206 5.54834 14.6317 5.11643C15.4428 4.68453 16.3785 4.54698 17.2796 4.7272C18.1806 4.90742 18.9914 5.39426 19.574 6.1049L20.27 5.53431L19.574 6.1049C20.1566 6.81554 20.475 7.70608 20.475 8.62501C20.475 11.3983 18.404 14.0725 16.0854 16.1592C14.9534 17.178 13.8172 18.0078 12.9622 18.5835C12.5718 18.8464 12.2418 19.0551 12 19.2034C11.7582 19.0551 11.4282 18.8464 11.0378 18.5835C10.1828 18.0078 9.04662 17.178 7.91457 16.1592C5.59601 14.0725 3.525 11.3983 3.525 8.62501C3.525 7.70608 3.84338 6.81554 4.42597 6.1049C5.00855 5.39426 5.81936 4.90742 6.72044 4.7272C7.62152 4.54698 8.5572 4.68453 9.3683 5.11643C10.1794 5.54834 10.8158 6.24792 11.1692 7.09616Z"
                  stroke="#363636" stroke-width="1.8" stroke-linecap="round" stroke-linejoin="round"/>
            <path d="M12 20.25C12 20.25 2.625 15 2.625 8.62501C2.625 7.49803 3.01546 6.40585 3.72996 5.53431C4.44445 4.66277 5.43884 4.0657 6.54393 3.84468C7.64903 3.62366 8.79657 3.79235 9.79131 4.32204C10.7861 4.85174 11.5665 5.70972 12 6.75001C12.4335 5.70972 13.2139 4.85174 14.2087 4.32204C15.2034 3.79235 16.351 3.62366 17.4561 3.84468C18.5612 4.0657 19.5555 4.66277 20.27 5.53431C20.9845 6.40585 21.375 7.49803 21.375 8.62501C21.375 15 12 20.25 12 20.25Z"
                  fill="#D51717"/>
        </g>
        <defs>
            <clipPath id="clip0_1_322">
                <rect width="24" height="24" fill="white"/>
            </clipPath>
        </defs>
    </g>

    <g id="send">
            <path d="M4.75 10L2.375 17.125L16.625 10L2.375 2.875L4.75 10ZM4.75 10H9.5" stroke="#363636" stroke-width="1.3" stroke-linecap="round" stroke-linejoin="round"/>
    </g>
</svg>

















