<svg width="193" height="23" viewBox="0 0 193 23" fill="none" xmlns="http://www.w3.org/2000/svg">
<ellipse cx="19.6204" cy="3.51984" rx="3.38563" ry="3.35864" fill="#79CFF4"/>
<ellipse cx="155.045" cy="3.35864" rx="3.38563" ry="3.35864" fill="#79CFF4"/>
<path fill-rule="evenodd" clip-rule="evenodd" d="M184.636 9.1785L188.731 14.9393H193L187.02 6.83551L192.068 1.89159L189.49 0L183.336 5.91121V0.322431H179.934V14.9393H183.336V10.4467L184.636 9.1785ZM1.1484 11.3925L0.173344 14.015C0.43336 14.1726 0.751158 14.3231 1.12674 14.4664C1.51676 14.6097 1.92123 14.7386 2.34014 14.8533C2.7735 14.9679 3.19964 15.0539 3.61856 15.1112C4.03747 15.1829 4.42027 15.2187 4.76696 15.2187C5.96593 15.2187 6.98432 15.0396 7.82215 14.6813C8.67443 14.3087 9.32447 13.8143 9.77227 13.1981C10.2345 12.5676 10.4656 11.8511 10.4656 11.0486C10.4656 10.4324 10.3284 9.89501 10.054 9.43645C9.79394 8.96355 9.44725 8.53364 9.01389 8.14673C8.58053 7.75981 8.09661 7.40872 7.56214 7.09346C7.0421 6.77819 6.52207 6.47009 6.00204 6.16916C5.58312 5.89688 5.17865 5.66044 4.78863 5.45981C4.39861 5.25919 4.08803 5.0514 3.85691 4.83645C3.62578 4.6215 3.51022 4.37072 3.51022 4.08411C3.51022 3.6972 3.67634 3.39626 4.00858 3.18131C4.35527 2.95202 4.79585 2.83738 5.33033 2.83738C5.70591 2.83738 6.0526 2.87321 6.37039 2.94486C6.70264 3.00218 7.03488 3.08816 7.36712 3.2028C7.69937 3.30312 8.06772 3.43925 8.47219 3.61122L9.53392 1.16075C8.97056 0.831153 8.30607 0.558879 7.54047 0.343926C6.77486 0.128973 6.02371 0.0214963 5.28699 0.0214963C4.20359 0.0214963 3.26465 0.200624 2.47015 0.558879C1.67566 0.902804 1.06896 1.38287 0.65004 1.99906C0.231125 2.60093 0.0144453 3.28879 0 4.06262C0 4.65016 0.130008 5.18754 0.390024 5.67477C0.664486 6.14766 1.0184 6.57757 1.45176 6.96449C1.89956 7.3514 2.38348 7.70966 2.90351 8.03925C3.42355 8.35452 3.92913 8.66262 4.42027 8.96355C4.82474 9.20716 5.22199 9.44361 5.61201 9.6729C6.00204 9.88785 6.31984 10.1028 6.56541 10.3178C6.82542 10.5327 6.95543 10.762 6.95543 11.0056C6.95543 11.2635 6.86876 11.5 6.69542 11.715C6.53652 11.9156 6.28372 12.0732 5.93703 12.1878C5.60479 12.3025 5.18588 12.3598 4.68029 12.3598C4.30471 12.3598 3.89302 12.3097 3.44521 12.2093C2.99741 12.109 2.57127 11.9872 2.1668 11.8439C1.76233 11.6863 1.42287 11.5358 1.1484 11.3925ZM13.0248 11.4785C12.4629 12.4921 12.1494 13.6456 12.0843 14.9392H15.5974C15.6486 14.1578 15.8239 13.4699 16.1234 12.8757C16.4845 12.1592 16.9684 11.6003 17.5751 11.1991C18.1818 10.7978 18.8319 10.5972 19.5252 10.5972C20.3486 10.5972 21.0492 10.805 21.627 11.2205C22.2049 11.6218 22.6454 12.1735 22.9488 12.8757C23.2237 13.4831 23.3797 14.171 23.4168 14.9392H26.9289C26.8816 13.6795 26.5878 12.533 26.0473 11.5C25.4695 10.3536 24.6245 9.4436 23.5122 8.77008C22.4143 8.09656 21.0781 7.7598 19.5036 7.7598C18.0446 7.77413 16.759 8.11089 15.6467 8.77008C14.5344 9.41494 13.6604 10.3177 13.0248 11.4785ZM40.2182 1.11776L39.1998 3.43925C38.7375 3.28162 38.3403 3.15981 38.0081 3.07383C37.6903 2.98785 37.3869 2.92336 37.098 2.88037C36.8091 2.83738 36.4696 2.81589 36.0796 2.81589C35.4151 2.81589 34.7867 3.01651 34.1945 3.41776C33.6167 3.80467 33.1472 4.36355 32.7861 5.09439C32.4394 5.8109 32.266 6.67072 32.266 7.67383C32.266 8.37601 32.3599 9.02087 32.5477 9.60841C32.75 10.1816 33.0172 10.6832 33.3494 11.1131C33.6961 11.543 34.1006 11.8726 34.5628 12.1019C35.0251 12.3312 35.5307 12.4458 36.0796 12.4458C36.6574 12.4458 37.1991 12.3813 37.7047 12.2523C38.2103 12.109 38.6725 11.9299 39.0915 11.715L40.3699 14.2299C39.9943 14.4305 39.5537 14.6097 39.0481 14.7673C38.557 14.9106 38.0514 15.0181 37.5314 15.0897C37.0258 15.1757 36.5491 15.2187 36.1013 15.2187C34.9312 15.2187 33.8911 15.0324 32.9811 14.6598C32.071 14.2872 31.2982 13.7642 30.6626 13.0907C30.0415 12.4028 29.5648 11.6003 29.2325 10.6832C28.9147 9.76604 28.7558 8.77009 28.7558 7.69533C28.7558 6.57757 28.9292 5.55296 29.2759 4.6215C29.637 3.6757 30.1426 2.86604 30.7926 2.19252C31.4571 1.50467 32.2371 0.974455 33.1328 0.601869C34.0284 0.229284 35.0179 0.0429914 36.1013 0.0429914C36.4913 0.0429914 36.9247 0.0859819 37.4014 0.171963C37.8925 0.243614 38.3836 0.358256 38.8748 0.515889C39.3804 0.673521 39.8282 0.874144 40.2182 1.11776ZM42.8417 14.9393H46.2219V0.322431H42.8417V14.9393ZM57.5606 9.11402L55.8271 4.5785L54.1803 9.11402H57.5606ZM54.3104 0.322431H57.4739L63.0859 14.7673L59.749 15.1542L58.5573 11.7794H53.2053L52.0569 14.9393H48.6767L54.3104 0.322431ZM75.6657 14.9393L75.2757 12.3168H68.8836V0.322431H65.5034V14.9393H75.6657ZM86.6996 14.9393H83.3194V0.322431H86.5696L91.8133 7.73832L92.8317 9.15701L92.81 0.322431H96.1902V14.9393H92.94L87.5447 7.39439L86.6996 6.23364V14.9393ZM100.194 14.9393H110.768L110.335 12.3168H103.574V8.89906H108.666L108.255 6.25514H103.574V2.96635H109.901L109.49 0.322431H100.194V14.9393ZM124.112 0.322431L124.524 2.96635H119.649V14.9393H116.269V2.96635H111.848V0.322431H124.112ZM141.522 14.9393L145.834 0.322431H142.454L139.983 10.6832L137.34 0.322431H133.96L131.468 10.6832L128.759 0.107477L125.401 0.494392L129.821 14.9393H133.006L135.628 5.02991L138.337 14.9393H141.522ZM170.251 3.03084H168.323V7.17944H170.316C170.793 7.17944 171.212 7.10062 171.573 6.94299C171.949 6.78536 172.245 6.55607 172.461 6.25514C172.678 5.95421 172.786 5.58162 172.786 5.13738C172.786 4.65016 172.685 4.24891 172.483 3.93364C172.281 3.61838 171.992 3.3891 171.616 3.24579C171.255 3.10249 170.8 3.03084 170.251 3.03084ZM164.943 0.322431H170.36C171.457 0.322431 172.454 0.494393 173.35 0.838318C174.245 1.16791 174.96 1.6838 175.495 2.38598C176.044 3.07383 176.318 3.96947 176.318 5.0729C176.318 5.96137 176.109 6.7352 175.69 7.39439C175.271 8.03925 174.737 8.54797 174.087 8.92056L177.51 14.9393H173.697L170.966 9.86635C170.735 9.88068 170.511 9.88785 170.295 9.88785C170.078 9.87352 169.861 9.86635 169.645 9.86635H168.323V14.9393H164.943V0.322431ZM147.271 14.9392C147.336 13.6456 147.65 12.4921 148.212 11.4785C148.847 10.3178 149.721 9.41495 150.834 8.77009C151.946 8.1109 153.232 7.77414 154.691 7.75981C156.265 7.75981 157.601 8.09657 158.699 8.77009C159.812 9.44361 160.657 10.3536 161.234 11.5C161.775 12.5331 162.069 13.6795 162.116 14.9392H158.604C158.567 14.171 158.411 13.4831 158.136 12.8757C157.832 12.1735 157.392 11.6218 156.814 11.2206C156.236 10.805 155.536 10.5972 154.712 10.5972C154.019 10.5972 153.369 10.7978 152.762 11.1991C152.155 11.6003 151.672 12.1592 151.31 12.8757C151.011 13.4699 150.836 14.1578 150.785 14.9392H147.271ZM154.676 23C154.681 23 154.686 23 154.691 23C154.691 23 154.691 23 154.692 23H154.676Z" fill="#494747"/>
</svg>
